<svg xmlns="http://www.w3.org/2000/svg" viewBox="0 0 96 96" width="96" height="96"><rect width="96" height="96" rx="11.5" fill="#eef2f5"/><line x1="48.3" y1="43.8" x2="48.3" y2="29.3" stroke="#0f766e" stroke-width="4.3" stroke-linecap="round"/><line x1="48.3" y1="29.3" x2="48.0" y2="16.5" stroke="#0f766e" stroke-width="4.3" stroke-linecap="round"/><line x1="48.0" y1="16.5" x2="48.0" y2="11.9" stroke="#0f766e" stroke-width="4.3" stroke-linecap="round"/><line x1="48.0" y1="11.9" x2="48.0" y2="5.1" stroke="#0f766e" stroke-width="4.3" stroke-linecap="round"/><line x1="48.0" y1="16.5" x2="37.4" y2="12.6" stroke="#0f766e" stroke-width="4.3" stroke-linecap="round"/><line x1="37.4" y1="12.6" x2="37.4" y2="28.6" stroke="#0f766e" stroke-width="4.3" stroke-linecap="round"/><line x1="37.4" y1="28.6" x2="37.4" y2="43.6" stroke="#0f766e" stroke-width="4.3" stroke-linecap="round"/><line x1="48.0" y1="16.5" x2="58.6" y2="12.6" stroke="#0f766e" stroke-width="4.3" stroke-linecap="round"/><line x1="58.6" y1="12.6" x2="58.6" y2="28.6" stroke="#0f766e" stroke-width="4.3" stroke-linecap="round"/><line x1="58.6" y1="28.6" x2="58.6" y2="43.6" stroke="#0f766e" stroke-width="4.3" stroke-linecap="round"/><line x1="48.3" y1="43.8" x2="41.6" y2="43.8" stroke="#0f766e" stroke-width="4.3" stroke-linecap="round"/><line x1="41.6" y1="43.8" x2="41.6" y2="67.6" stroke="#0f766e" stroke-width="4.3" stroke-linecap="round"/><line x1="41.6" y1="67.6" x2="41.6" y2="90.9" stroke="#0f766e" stroke-width="4.3" stroke-linecap="round"/><line x1="48.3" y1="43.8" x2="55.0" y2="43.8" stroke="#0f766e" stroke-width="4.3" stroke-linecap="round"/><line x1="55.0" y1="43.8" x2="55.0" y2="67.6" stroke="#0f766e" stroke-width="4.3" stroke-linecap="round"/><line x1="55.0" y1="67.6" x2="55.0" y2="90.9" stroke="#0f766e" stroke-width="4.3" stroke-linecap="round"/><circle cx="48.0" cy="5.1" r="6.7" fill="#0f766e"/><circle cx="48.3" cy="43.8" r="4.8" fill="#0f766e" opacity="0.85"/><circle cx="48.3" cy="29.3" r="4.8" fill="#0f766e" opacity="0.85"/><circle cx="48.0" cy="16.5" r="4.8" fill="#0f766e" opacity="0.85"/><circle cx="48.0" cy="11.9" r="4.8" fill="#0f766e" opacity="0.85"/><circle cx="37.4" cy="12.6" r="4.8" fill="#0f766e" opacity="0.85"/><circle cx="37.4" cy="28.6" r="4.8" fill="#0f766e" opacity="0.85"/><circle cx="37.4" cy="43.6" r="4.8" fill="#0f766e" opacity="0.85"/><circle cx="58.6" cy="12.6" r="4.8" fill="#0f766e" opacity="0.85"/><circle cx="58.6" cy="28.6" r="4.8" fill="#0f766e" opacity="0.85"/><circle cx="58.6" cy="43.6" r="4.8" fill="#0f766e" opacity="0.85"/><circle cx="41.6" cy="43.8" r="4.8" fill="#0f766e" opacity="0.85"/><circle cx="41.6" cy="67.6" r="4.8" fill="#0f766e" opacity="0.85"/><circle cx="41.6" cy="90.9" r="4.8" fill="#0f766e" opacity="0.85"/><circle cx="55.0" cy="43.8" r="4.8" fill="#0f766e" opacity="0.85"/><circle cx="55.0" cy="67.6" r="4.8" fill="#0f766e" opacity="0.85"/><circle cx="55.0" cy="90.9" r="4.8" fill="#0f766e" opacity="0.85"/></svg>