<svg xmlns="http://www.w3.org/2000/svg" viewBox="0 0 96 96" width="96" height="96"><rect width="96" height="96" rx="11.5" fill="#eef2f5"/><line x1="48.0" y1="42.1" x2="48.0" y2="28.2" stroke="#0f766e" stroke-width="4.3" stroke-linecap="round"/><line x1="48.0" y1="28.2" x2="48.0" y2="16.0" stroke="#0f766e" stroke-width="4.3" stroke-linecap="round"/><line x1="48.0" y1="16.0" x2="48.0" y2="11.2" stroke="#0f766e" stroke-width="4.3" stroke-linecap="round"/><line x1="48.0" y1="11.2" x2="48.0" y2="5.1" stroke="#0f766e" stroke-width="4.3" stroke-linecap="round"/><line x1="48.0" y1="16.0" x2="37.5" y2="10.3" stroke="#0f766e" stroke-width="4.3" stroke-linecap="round"/><line x1="37.5" y1="10.3" x2="37.5" y2="18.6" stroke="#0f766e" stroke-width="4.3" stroke-linecap="round"/><line x1="37.5" y1="18.6" x2="37.5" y2="34.2" stroke="#0f766e" stroke-width="4.3" stroke-linecap="round"/><line x1="48.0" y1="16.0" x2="58.5" y2="10.3" stroke="#0f766e" stroke-width="4.3" stroke-linecap="round"/><line x1="58.5" y1="10.3" x2="58.5" y2="18.6" stroke="#0f766e" stroke-width="4.3" stroke-linecap="round"/><line x1="58.5" y1="18.6" x2="58.5" y2="34.2" stroke="#0f766e" stroke-width="4.3" stroke-linecap="round"/><line x1="48.0" y1="42.1" x2="41.0" y2="42.1" stroke="#0f766e" stroke-width="4.3" stroke-linecap="round"/><line x1="41.0" y1="42.1" x2="41.0" y2="66.8" stroke="#0f766e" stroke-width="4.3" stroke-linecap="round"/><line x1="41.0" y1="66.8" x2="41.0" y2="90.9" stroke="#0f766e" stroke-width="4.3" stroke-linecap="round"/><line x1="48.0" y1="42.1" x2="55.0" y2="42.1" stroke="#0f766e" stroke-width="4.3" stroke-linecap="round"/><line x1="55.0" y1="42.1" x2="55.0" y2="66.8" stroke="#0f766e" stroke-width="4.3" stroke-linecap="round"/><line x1="55.0" y1="66.8" x2="55.0" y2="90.9" stroke="#0f766e" stroke-width="4.3" stroke-linecap="round"/><circle cx="48.0" cy="5.1" r="6.7" fill="#0f766e"/><circle cx="48.0" cy="42.1" r="4.8" fill="#0f766e" opacity="0.85"/><circle cx="48.0" cy="28.2" r="4.8" fill="#0f766e" opacity="0.85"/><circle cx="48.0" cy="16.0" r="4.8" fill="#0f766e" opacity="0.85"/><circle cx="48.0" cy="11.2" r="4.8" fill="#0f766e" opacity="0.85"/><circle cx="37.5" cy="10.3" r="4.8" fill="#0f766e" opacity="0.85"/><circle cx="37.5" cy="18.6" r="4.8" fill="#0f766e" opacity="0.85"/><circle cx="37.5" cy="34.2" r="4.8" fill="#0f766e" opacity="0.85"/><circle cx="58.5" cy="10.3" r="4.8" fill="#0f766e" opacity="0.85"/><circle cx="58.5" cy="18.6" r="4.8" fill="#0f766e" opacity="0.85"/><circle cx="58.5" cy="34.2" r="4.8" fill="#0f766e" opacity="0.85"/><circle cx="41.0" cy="42.1" r="4.8" fill="#0f766e" opacity="0.85"/><circle cx="41.0" cy="66.8" r="4.8" fill="#0f766e" opacity="0.85"/><circle cx="41.0" cy="90.9" r="4.8" fill="#0f766e" opacity="0.85"/><circle cx="55.0" cy="42.1" r="4.8" fill="#0f766e" opacity="0.85"/><circle cx="55.0" cy="66.8" r="4.8" fill="#0f766e" opacity="0.85"/><circle cx="55.0" cy="90.9" r="4.8" fill="#0f766e" opacity="0.85"/></svg>