<svg xmlns="http://www.w3.org/2000/svg" viewBox="0 0 96 96" width="96" height="96"><rect width="96" height="96" rx="11.5" fill="#eef2f5"/><line x1="47.6" y1="43.8" x2="47.6" y2="29.3" stroke="#0f766e" stroke-width="4.3" stroke-linecap="round"/><line x1="47.6" y1="29.3" x2="47.6" y2="16.5" stroke="#0f766e" stroke-width="4.3" stroke-linecap="round"/><line x1="47.6" y1="16.5" x2="47.6" y2="11.9" stroke="#0f766e" stroke-width="4.3" stroke-linecap="round"/><line x1="47.6" y1="11.9" x2="47.6" y2="5.1" stroke="#0f766e" stroke-width="4.3" stroke-linecap="round"/><line x1="47.6" y1="16.5" x2="36.7" y2="12.5" stroke="#0f766e" stroke-width="4.3" stroke-linecap="round"/><line x1="36.7" y1="12.5" x2="36.7" y2="28.6" stroke="#0f766e" stroke-width="4.3" stroke-linecap="round"/><line x1="36.7" y1="28.6" x2="36.7" y2="43.6" stroke="#0f766e" stroke-width="4.3" stroke-linecap="round"/><line x1="47.6" y1="16.5" x2="59.3" y2="15.9" stroke="#0f766e" stroke-width="4.3" stroke-linecap="round"/><line x1="59.3" y1="15.9" x2="59.3" y2="30.9" stroke="#0f766e" stroke-width="4.3" stroke-linecap="round"/><line x1="59.3" y1="30.9" x2="59.3" y2="45.9" stroke="#0f766e" stroke-width="4.3" stroke-linecap="round"/><line x1="47.6" y1="43.8" x2="40.9" y2="43.8" stroke="#0f766e" stroke-width="4.3" stroke-linecap="round"/><line x1="40.9" y1="43.8" x2="40.9" y2="67.6" stroke="#0f766e" stroke-width="4.3" stroke-linecap="round"/><line x1="40.9" y1="67.6" x2="40.9" y2="90.9" stroke="#0f766e" stroke-width="4.3" stroke-linecap="round"/><line x1="47.6" y1="43.8" x2="54.4" y2="43.8" stroke="#0f766e" stroke-width="4.3" stroke-linecap="round"/><line x1="54.4" y1="43.8" x2="54.4" y2="67.6" stroke="#0f766e" stroke-width="4.3" stroke-linecap="round"/><line x1="54.4" y1="67.6" x2="54.4" y2="90.9" stroke="#0f766e" stroke-width="4.3" stroke-linecap="round"/><circle cx="47.6" cy="5.1" r="6.7" fill="#0f766e"/><circle cx="47.6" cy="43.8" r="4.8" fill="#0f766e" opacity="0.85"/><circle cx="47.6" cy="29.3" r="4.8" fill="#0f766e" opacity="0.85"/><circle cx="47.6" cy="16.5" r="4.8" fill="#0f766e" opacity="0.85"/><circle cx="47.6" cy="11.9" r="4.8" fill="#0f766e" opacity="0.85"/><circle cx="36.7" cy="12.5" r="4.8" fill="#0f766e" opacity="0.85"/><circle cx="36.7" cy="28.6" r="4.8" fill="#0f766e" opacity="0.85"/><circle cx="36.7" cy="43.6" r="4.8" fill="#0f766e" opacity="0.85"/><circle cx="59.3" cy="15.9" r="4.8" fill="#0f766e" opacity="0.85"/><circle cx="59.3" cy="30.9" r="4.8" fill="#0f766e" opacity="0.85"/><circle cx="59.3" cy="45.9" r="4.8" fill="#0f766e" opacity="0.85"/><circle cx="40.9" cy="43.8" r="4.8" fill="#0f766e" opacity="0.85"/><circle cx="40.9" cy="67.6" r="4.8" fill="#0f766e" opacity="0.85"/><circle cx="40.9" cy="90.9" r="4.8" fill="#0f766e" opacity="0.85"/><circle cx="54.4" cy="43.8" r="4.8" fill="#0f766e" opacity="0.85"/><circle cx="54.4" cy="67.6" r="4.8" fill="#0f766e" opacity="0.85"/><circle cx="54.4" cy="90.9" r="4.8" fill="#0f766e" opacity="0.85"/></svg>