<svg xmlns="http://www.w3.org/2000/svg" viewBox="0 0 96 96" width="96" height="96"><rect width="96" height="96" rx="11.5" fill="#eef2f5"/><line x1="48.0" y1="60.5" x2="48.0" y2="39.8" stroke="#0f766e" stroke-width="4.3" stroke-linecap="round"/><line x1="48.0" y1="39.8" x2="48.0" y2="21.4" stroke="#0f766e" stroke-width="4.3" stroke-linecap="round"/><line x1="48.0" y1="21.4" x2="48.0" y2="14.8" stroke="#0f766e" stroke-width="4.3" stroke-linecap="round"/><line x1="48.0" y1="14.8" x2="48.0" y2="5.1" stroke="#0f766e" stroke-width="4.3" stroke-linecap="round"/><line x1="48.0" y1="21.4" x2="32.4" y2="15.7" stroke="#0f766e" stroke-width="4.3" stroke-linecap="round"/><line x1="32.4" y1="15.7" x2="32.4" y2="38.7" stroke="#0f766e" stroke-width="4.3" stroke-linecap="round"/><line x1="32.4" y1="38.7" x2="32.4" y2="60.2" stroke="#0f766e" stroke-width="4.3" stroke-linecap="round"/><line x1="48.0" y1="21.4" x2="63.6" y2="15.7" stroke="#0f766e" stroke-width="4.3" stroke-linecap="round"/><line x1="63.6" y1="15.7" x2="63.6" y2="38.7" stroke="#0f766e" stroke-width="4.3" stroke-linecap="round"/><line x1="63.6" y1="38.7" x2="63.6" y2="60.2" stroke="#0f766e" stroke-width="4.3" stroke-linecap="round"/><line x1="48.0" y1="60.5" x2="38.4" y2="60.5" stroke="#0f766e" stroke-width="4.3" stroke-linecap="round"/><line x1="38.4" y1="60.5" x2="38.4" y2="57.5" stroke="#0f766e" stroke-width="4.3" stroke-linecap="round"/><line x1="38.4" y1="57.5" x2="38.4" y2="90.9" stroke="#0f766e" stroke-width="4.3" stroke-linecap="round"/><line x1="48.0" y1="60.5" x2="57.6" y2="60.5" stroke="#0f766e" stroke-width="4.3" stroke-linecap="round"/><line x1="57.6" y1="60.5" x2="57.6" y2="57.5" stroke="#0f766e" stroke-width="4.3" stroke-linecap="round"/><line x1="57.6" y1="57.5" x2="57.6" y2="90.9" stroke="#0f766e" stroke-width="4.3" stroke-linecap="round"/><circle cx="48.0" cy="5.1" r="6.7" fill="#0f766e"/><circle cx="48.0" cy="60.5" r="4.8" fill="#0f766e" opacity="0.85"/><circle cx="48.0" cy="39.8" r="4.8" fill="#0f766e" opacity="0.85"/><circle cx="48.0" cy="21.4" r="4.8" fill="#0f766e" opacity="0.85"/><circle cx="48.0" cy="14.8" r="4.8" fill="#0f766e" opacity="0.85"/><circle cx="32.4" cy="15.7" r="4.8" fill="#0f766e" opacity="0.85"/><circle cx="32.4" cy="38.7" r="4.8" fill="#0f766e" opacity="0.85"/><circle cx="32.4" cy="60.2" r="4.8" fill="#0f766e" opacity="0.85"/><circle cx="63.6" cy="15.7" r="4.8" fill="#0f766e" opacity="0.85"/><circle cx="63.6" cy="38.7" r="4.8" fill="#0f766e" opacity="0.85"/><circle cx="63.6" cy="60.2" r="4.8" fill="#0f766e" opacity="0.85"/><circle cx="38.4" cy="60.5" r="4.8" fill="#0f766e" opacity="0.85"/><circle cx="38.4" cy="57.5" r="4.8" fill="#0f766e" opacity="0.85"/><circle cx="38.4" cy="90.9" r="4.8" fill="#0f766e" opacity="0.85"/><circle cx="57.6" cy="60.5" r="4.8" fill="#0f766e" opacity="0.85"/><circle cx="57.6" cy="57.5" r="4.8" fill="#0f766e" opacity="0.85"/><circle cx="57.6" cy="90.9" r="4.8" fill="#0f766e" opacity="0.85"/></svg>