<svg xmlns="http://www.w3.org/2000/svg" viewBox="0 0 96 96" width="96" height="96"><rect width="96" height="96" rx="11.5" fill="#eef2f5"/><line x1="48.0" y1="42.7" x2="48.0" y2="28.6" stroke="#0f766e" stroke-width="4.3" stroke-linecap="round"/><line x1="48.0" y1="28.6" x2="48.0" y2="16.3" stroke="#0f766e" stroke-width="4.3" stroke-linecap="round"/><line x1="48.0" y1="16.3" x2="48.0" y2="11.5" stroke="#0f766e" stroke-width="4.3" stroke-linecap="round"/><line x1="48.0" y1="11.5" x2="48.0" y2="5.1" stroke="#0f766e" stroke-width="4.3" stroke-linecap="round"/><line x1="48.0" y1="16.3" x2="37.6" y2="10.5" stroke="#0f766e" stroke-width="4.3" stroke-linecap="round"/><line x1="37.6" y1="10.5" x2="37.6" y2="26.9" stroke="#0f766e" stroke-width="4.3" stroke-linecap="round"/><line x1="37.6" y1="26.9" x2="37.6" y2="42.2" stroke="#0f766e" stroke-width="4.3" stroke-linecap="round"/><line x1="48.0" y1="16.3" x2="58.4" y2="10.5" stroke="#0f766e" stroke-width="4.3" stroke-linecap="round"/><line x1="58.4" y1="10.5" x2="58.4" y2="26.9" stroke="#0f766e" stroke-width="4.3" stroke-linecap="round"/><line x1="58.4" y1="26.9" x2="58.4" y2="42.2" stroke="#0f766e" stroke-width="4.3" stroke-linecap="round"/><line x1="48.0" y1="42.7" x2="41.1" y2="42.7" stroke="#0f766e" stroke-width="4.3" stroke-linecap="round"/><line x1="41.1" y1="42.7" x2="41.1" y2="67.0" stroke="#0f766e" stroke-width="4.3" stroke-linecap="round"/><line x1="41.1" y1="67.0" x2="41.1" y2="90.9" stroke="#0f766e" stroke-width="4.3" stroke-linecap="round"/><line x1="48.0" y1="42.7" x2="54.9" y2="42.7" stroke="#0f766e" stroke-width="4.3" stroke-linecap="round"/><line x1="54.9" y1="42.7" x2="54.9" y2="67.0" stroke="#0f766e" stroke-width="4.3" stroke-linecap="round"/><line x1="54.9" y1="67.0" x2="54.9" y2="90.9" stroke="#0f766e" stroke-width="4.3" stroke-linecap="round"/><circle cx="48.0" cy="5.1" r="6.7" fill="#0f766e"/><circle cx="48.0" cy="42.7" r="4.8" fill="#0f766e" opacity="0.85"/><circle cx="48.0" cy="28.6" r="4.8" fill="#0f766e" opacity="0.85"/><circle cx="48.0" cy="16.3" r="4.8" fill="#0f766e" opacity="0.85"/><circle cx="48.0" cy="11.5" r="4.8" fill="#0f766e" opacity="0.85"/><circle cx="37.6" cy="10.5" r="4.8" fill="#0f766e" opacity="0.85"/><circle cx="37.6" cy="26.9" r="4.8" fill="#0f766e" opacity="0.85"/><circle cx="37.6" cy="42.2" r="4.8" fill="#0f766e" opacity="0.85"/><circle cx="58.4" cy="10.5" r="4.8" fill="#0f766e" opacity="0.85"/><circle cx="58.4" cy="26.9" r="4.8" fill="#0f766e" opacity="0.85"/><circle cx="58.4" cy="42.2" r="4.8" fill="#0f766e" opacity="0.85"/><circle cx="41.1" cy="42.7" r="4.8" fill="#0f766e" opacity="0.85"/><circle cx="41.1" cy="67.0" r="4.8" fill="#0f766e" opacity="0.85"/><circle cx="41.1" cy="90.9" r="4.8" fill="#0f766e" opacity="0.85"/><circle cx="54.9" cy="42.7" r="4.8" fill="#0f766e" opacity="0.85"/><circle cx="54.9" cy="67.0" r="4.8" fill="#0f766e" opacity="0.85"/><circle cx="54.9" cy="90.9" r="4.8" fill="#0f766e" opacity="0.85"/></svg>